<?xml version="1.0" standalone="no"?>
<!DOCTYPE svg PUBLIC "-//W3C//DTD SVG 20010904//EN"
 "http://www.w3.org/TR/2001/REC-SVG-20010904/DTD/svg10.dtd">
<svg version="1.0" xmlns="http://www.w3.org/2000/svg"
 width="400.000000pt" height="400.000000pt" viewBox="0 0 400.000000 400.000000"
 preserveAspectRatio="xMidYMid meet">
<metadata>
Created by potrace 1.14, written by Peter Selinger 2001-2017
</metadata>
<g transform="translate(0.000000,400.000000) scale(0.100000,-0.100000)"
fill="#000000" stroke="none">
<path d="M0 3973 c0 -16 4 -23 8 -17 4 5 18 18 32 27 l24 17 -32 0 c-28 0 -32
-3 -32 -27z"/>
<path d="M572 3979 c21 -10 53 -35 72 -54 41 -41 46 -43 39 -12 -12 46 -69 87
-120 87 -28 -1 -28 -1 9 -21z"/>
<path d="M1085 3990 c-64 -9 -100 -28 -153 -79 -93 -91 -120 -204 -74 -321 50
-126 137 -197 270 -222 175 -32 308 94 272 258 -14 60 -49 108 -100 134 -49
25 -140 29 -173 7 -35 -23 -60 -82 -53 -125 10 -62 72 -106 116 -82 30 16 24
28 -15 28 -20 0 -42 5 -50 12 -32 27 -27 96 10 133 19 20 98 23 141 6 66 -25
112 -113 99 -193 -17 -99 -86 -151 -200 -150 -90 1 -160 30 -216 91 -87 94
-116 221 -71 309 32 61 87 120 137 143 118 56 353 2 517 -119 70 -52 106 -97
128 -165 7 -22 15 -34 17 -28 9 25 -30 116 -66 156 -20 22 -63 58 -96 80 -78
51 -43 40 130 -43 278 -132 440 -235 546 -347 51 -53 119 -137 119 -146 0 -3
14 -19 30 -35 17 -17 30 -40 30 -51 0 -11 5 -23 11 -27 9 -5 10 7 7 43 l-5 50
51 -10 c63 -11 196 -57 256 -87 25 -13 88 -49 141 -80 86 -53 114 -65 144 -61
15 2 -209 137 -300 181 -85 42 -232 88 -291 92 -31 2 -45 13 -119 99 -114 131
-211 205 -412 313 -31 17 -50 33 -47 41 3 7 -3 28 -12 47 -17 30 -19 31 -22
11 -2 -12 2 -31 8 -42 20 -38 -9 -23 -36 19 -15 22 -31 40 -35 40 -13 0 -11
-14 4 -29 10 -11 9 -12 -3 -7 -8 3 -23 9 -32 12 -10 4 -18 10 -18 15 0 5 -8 9
-18 9 -10 0 -45 13 -78 30 l-59 30 170 -1 c260 -1 261 -1 247 14 -9 9 -84 14
-270 18 -202 4 -267 9 -306 22 -52 18 -177 21 -271 7z"/>
<path d="M1930 3987 c0 -19 30 -77 39 -77 20 0 18 15 -6 51 -28 42 -33 46 -33
26z"/>
<path d="M3447 3993 c-13 -21 -17 -92 -7 -98 16 -10 17 -7 25 53 4 34 3 52 -3
52 -6 0 -13 -3 -15 -7z"/>
<path d="M3487 3986 c-10 -26 -8 -43 3 -26 8 12 10 12 10 1 0 -8 2 -12 5 -9 3
3 2 15 -3 28 -8 20 -9 21 -15 6z"/>
<path d="M3690 3990 c0 -5 5 -10 11 -10 5 0 7 5 4 10 -3 6 -8 10 -11 10 -2 0
-4 -4 -4 -10z"/>
<path d="M3720 3973 c0 -47 11 -74 29 -71 11 3 15 12 13 34 l-3 30 73 -12
c100 -18 168 -18 168 0 0 10 -28 14 -117 18 -74 4 -119 10 -121 17 -2 6 -12
11 -23 11 -14 0 -19 -7 -19 -27z"/>
<path d="M3040 3978 c-383 -20 -866 -34 -889 -26 -28 10 -40 3 -23 -14 15 -15
335 -12 865 9 337 13 427 20 427 30 0 15 -111 16 -380 1z"/>
<path d="M1980 3960 c11 -21 44 -43 53 -34 3 3 15 -1 27 -8 17 -10 24 -10 27
-1 2 7 11 9 19 6 18 -7 18 2 -2 21 -18 19 -38 21 -28 4 4 -7 -4 -3 -18 10 -13
12 -28 22 -32 22 -4 0 -4 -10 -1 -22 l7 -23 -21 23 c-27 28 -46 29 -31 2z"/>
<path d="M3535 3960 c-3 -5 -2 -10 4 -10 5 0 13 5 16 10 3 6 2 10 -4 10 -5 0
-13 -4 -16 -10z"/>
<path d="M3702 3950 c0 -14 2 -19 5 -12 2 6 2 18 0 25 -3 6 -5 1 -5 -13z"/>
<path d="M3585 3940 c3 -5 8 -10 11 -10 2 0 4 5 4 10 0 6 -5 10 -11 10 -5 0
-7 -4 -4 -10z"/>
<path d="M3528 3923 c7 -3 16 -2 19 1 4 3 -2 6 -13 5 -11 0 -14 -3 -6 -6z"/>
<path d="M175 3855 c-51 -18 -76 -50 -73 -95 4 -47 43 -71 85 -50 25 12 26 14
8 17 -60 11 -65 14 -65 36 0 43 39 67 109 67 67 0 114 -18 131 -49 5 -11 10
-42 10 -68 0 -42 -5 -53 -32 -80 -65 -61 -165 -84 -262 -58 -33 9 -66 21 -73
27 -10 8 -13 6 -13 -10 0 -32 52 -47 165 -47 91 0 104 2 146 27 76 45 99 79
99 147 0 64 -20 100 -68 125 -43 22 -122 27 -167 11z"/>
<path d="M1840 3844 c0 -27 35 -60 45 -44 4 7 -4 23 -19 38 -25 25 -26 25 -26
6z"/>
<path d="M1912 3844 c4 -21 55 -60 65 -51 7 8 -45 67 -60 67 -4 0 -7 -7 -5
-16z"/>
<path d="M2315 3850 c-8 -12 21 -60 35 -60 13 0 13 6 -5 40 -17 33 -21 35 -30
20z"/>
<path d="M2419 3822 c16 -31 38 -45 47 -31 4 7 -2 20 -16 31 -29 23 -44 23
-31 0z"/>
<path d="M2521 3647 c2 -1 14 -11 27 -21 12 -11 22 -16 22 -13 0 10 -31 37
-42 37 -6 0 -9 -1 -7 -3z"/>
<path d="M2680 3630 c0 -21 12 -24 44 -11 18 7 18 8 3 14 -9 3 -17 2 -17 -3 0
-6 -5 -10 -11 -10 -6 0 -9 7 -5 15 3 8 1 15 -4 15 -6 0 -10 -9 -10 -20z"/>
<path d="M3820 3351 c0 -6 4 -13 10 -16 6 -3 7 1 4 9 -7 18 -14 21 -14 7z"/>
<path d="M3908 3328 c17 -17 15 -33 -3 -18 -10 9 -15 9 -15 1 0 -6 3 -11 8
-12 4 0 15 -2 24 -4 14 -3 15 1 6 21 -6 13 -16 24 -22 24 -6 0 -5 -5 2 -12z"/>
<path d="M3401 3264 c-30 -25 -52 -77 -43 -101 7 -20 22 -15 22 6 0 11 16 40
35 65 39 52 32 69 -14 30z"/>
<path d="M3454 3257 c-3 -10 -3 -33 0 -53 9 -48 32 -39 29 12 -3 44 -19 66
-29 41z"/>
<path d="M3505 3258 c-10 -24 7 -90 24 -96 11 -4 13 4 7 38 -4 24 -11 50 -16
59 -8 14 -9 14 -15 -1z"/>
<path d="M2950 3254 c0 -18 64 -154 72 -154 5 0 7 8 4 18 -2 9 -10 36 -17 59
-11 38 -59 101 -59 77z"/>
<path d="M2890 3236 c0 -16 62 -115 73 -115 18 -2 4 50 -23 87 -31 43 -50 53
-50 28z"/>
<path d="M3021 3227 c-1 -25 38 -99 49 -92 10 6 -6 48 -32 86 -14 20 -17 21
-17 6z"/>
<path d="M3132 3171 c2 -19 9 -36 16 -39 17 -5 15 30 -3 54 -14 18 -15 17 -13
-15z"/>
<path d="M1896 3115 c-47 -13 -180 -77 -200 -96 -25 -23 10 -14 100 26 121 54
236 72 379 57 50 -5 92 -7 94 -6 35 30 -276 45 -373 19z"/>
<path d="M1305 3089 c-149 -16 -314 -111 -417 -239 -101 -126 -181 -389 -163
-540 15 -133 70 -257 143 -320 68 -60 136 -82 277 -87 106 -5 127 -3 177 17
119 45 209 179 216 322 4 69 1 82 -22 122 -103 176 -395 137 -436 -58 -10 -49
-9 -61 7 -94 37 -76 144 -110 190 -59 47 51 58 107 22 107 -15 0 -19 -4 -15
-16 3 -9 -3 -31 -15 -50 -25 -41 -63 -45 -114 -14 -40 25 -44 34 -41 98 6 104
83 167 204 166 52 0 69 -5 105 -30 65 -46 87 -86 87 -159 0 -53 -6 -75 -40
-143 -43 -86 -78 -123 -150 -156 -67 -31 -250 -29 -334 4 -195 76 -278 346
-191 620 74 233 189 362 394 444 66 26 89 30 176 30 90 1 109 -2 188 -33 49
-18 91 -31 94 -28 8 9 -99 66 -152 81 -68 19 -119 23 -190 15z"/>
<path d="M2519 3089 c-18 -11 -12 -14 46 -28 129 -32 290 -125 373 -216 121
-132 225 -330 258 -488 34 -166 17 -418 -42 -621 -8 -27 -14 -53 -14 -57 0 -3
25 -19 56 -34 119 -58 127 -165 20 -263 -59 -55 -96 -70 -198 -83 -64 -8 -111
-6 -221 7 -169 20 -202 17 -382 -34 -323 -92 -400 -98 -547 -42 -65 24 -149
94 -168 140 -15 37 -8 111 14 145 9 14 43 39 76 55 33 17 60 34 60 40 0 38
-94 5 -144 -50 -33 -37 -56 -92 -56 -135 0 -83 75 -173 185 -221 38 -17 69
-38 78 -53 32 -53 56 -71 97 -71 33 0 44 6 73 40 24 29 45 43 69 47 l35 5 27
-66 c14 -36 26 -77 26 -90 0 -20 -6 -24 -46 -30 -78 -10 -186 -7 -280 9 -99
17 -216 69 -298 132 -46 36 -50 42 -71 128 -53 212 -150 453 -237 590 -55 87
-42 31 25 -107 85 -176 197 -512 197 -593 0 -12 13 -36 29 -54 86 -97 94 -235
18 -309 l-34 -33 -5 68 c-5 71 -30 134 -67 167 -28 26 -26 12 9 -59 32 -64 39
-129 20 -195 -12 -42 -47 -86 -76 -94 -21 -6 -22 -3 -26 66 -4 69 -14 101 -66
205 -31 63 -32 16 -1 -53 44 -97 49 -166 16 -237 -17 -38 -35 -61 -56 -71 -41
-21 -103 -20 -131 2 l-22 18 21 42 c32 62 24 190 -15 250 -26 39 -27 17 -4
-47 30 -80 24 -146 -16 -204 -28 -40 -31 -41 -93 -45 -84 -5 -139 16 -190 75
-54 60 -74 125 -67 209 3 39 -1 101 -10 152 -22 126 -125 427 -196 570 -61
124 -87 161 -240 346 -138 167 -208 280 -224 364 -3 17 -10 32 -15 32 -28 0
17 -143 73 -234 17 -28 68 -97 114 -153 46 -56 84 -104 84 -107 0 -5 -32 -12
-105 -20 -22 -3 -88 -5 -147 -6 -104 0 -108 -1 -108 -21 0 -23 8 -23 330 -4
40 3 60 -1 73 -12 25 -23 21 -34 -8 -23 -13 5 -26 6 -29 2 -3 -4 5 -9 16 -9
50 -4 30 -33 -23 -33 -28 0 -39 4 -39 15 0 9 -10 15 -27 16 -20 1 -16 4 16 10
24 5 46 11 49 14 5 5 -23 9 -40 6 -4 0 -76 -4 -160 -7 -84 -3 -155 -8 -158
-11 -3 -3 40 -4 95 -3 129 4 170 2 161 -7 -4 -4 -58 -7 -119 -6 l-112 1 92 -7
c50 -3 95 -10 100 -15 4 -4 -21 -6 -57 -3 -60 6 -61 4 -3 -8 16 -4 20 -10 16
-26 -6 -20 -3 -21 68 -17 67 3 74 5 71 23 -2 18 2 20 48 17 41 -3 50 -7 50
-22 0 -11 5 -22 10 -25 15 -9 12 -22 -6 -29 -8 -3 -12 -2 -9 4 8 14 -4 50 -16
50 -6 0 -17 -7 -25 -15 -9 -8 -11 -15 -5 -15 6 0 11 -6 11 -14 0 -7 10 -16 22
-20 34 -9 50 -7 43 4 -3 6 1 10 10 10 13 0 12 4 -5 22 -11 12 -18 28 -16 35 3
7 1 13 -4 13 -6 0 -10 5 -10 11 0 5 4 7 10 4 6 -3 7 1 4 9 -22 58 66 -55 109
-139 31 -61 118 -297 113 -308 -2 -7 -5 -4 -5 6 -1 9 -7 17 -15 17 -8 0 -17 7
-20 16 -8 22 -8 26 4 19 5 -3 10 -2 10 4 0 5 -4 13 -10 16 -5 3 -10 16 -11 28
0 21 -1 21 -9 2 -12 -27 -13 -55 -2 -37 6 8 9 2 9 -17 0 -17 -3 -28 -7 -26
-14 8 -32 94 -26 119 4 18 1 28 -11 36 -17 11 -17 11 1 6 14 -5 17 -2 12 10
-3 8 -6 18 -6 20 0 2 -9 4 -20 4 -21 0 -28 24 -10 35 6 3 10 12 10 18 0 8 -3
8 -9 -1 -14 -24 -46 -10 -46 20 0 14 -3 30 -7 34 -5 4 -8 -9 -8 -29 0 -36 -1
-37 -35 -37 -24 0 -35 5 -35 15 0 11 -11 15 -40 15 -29 0 -40 -4 -40 -15 0
-11 -11 -15 -40 -15 l-40 0 0 40 0 40 -40 0 c-29 0 -40 4 -40 15 0 11 -11 15
-38 15 -21 0 -42 3 -46 7 -4 4 -23 8 -42 8 l-34 1 0 -73 0 -73 40 0 c29 0 40
-4 40 -15 0 -11 -11 -15 -40 -15 -29 0 -40 -4 -40 -15 0 -9 9 -15 24 -15 13 0
49 -12 80 -26 32 -14 59 -24 62 -21 2 2 -16 12 -41 22 -26 9 -44 19 -41 22 2
3 26 -5 52 -16 46 -21 84 -20 84 0 0 6 -9 7 -21 4 -15 -5 -19 -4 -15 4 9 13
26 14 46 1 13 -8 12 -11 -5 -25 -15 -12 -16 -15 -4 -12 12 4 16 -1 16 -19 0
-24 0 -24 -17 -4 -10 11 -24 20 -31 20 -8 -1 -2 -11 15 -26 17 -15 32 -22 40
-16 23 17 56 1 56 -28 0 -10 6 -21 13 -23 9 -4 9 -6 -1 -6 -7 -1 -10 -6 -6
-12 4 -7 1 -10 -7 -7 -8 3 -13 13 -11 23 2 11 -1 14 -9 10 -9 -6 -10 0 -5 21
5 21 4 25 -4 14 -8 -12 -10 -13 -10 -1 0 8 -3 12 -6 9 -3 -3 2 -23 11 -44 10
-22 25 -61 35 -89 28 -80 63 -155 72 -155 11 0 10 18 -2 25 -5 3 -10 12 -10
18 0 7 6 4 14 -5 8 -11 13 -45 12 -93 l-1 -76 -192 0 c-157 0 -193 -3 -193
-14 0 -10 11 -13 34 -12 19 2 37 5 41 8 3 3 26 2 53 -2 26 -4 92 -8 147 -9 55
0 105 -4 110 -8 6 -4 11 -23 12 -43 3 -44 46 -143 58 -132 4 5 5 3 1 -4 -8
-15 20 -73 35 -73 6 0 8 -4 5 -9 -3 -5 4 -21 16 -36 16 -21 23 -24 30 -13 8
10 9 9 5 -3 -3 -10 4 -25 19 -38 27 -24 30 -47 10 -76 -11 -17 -11 -35 1 -114
7 -51 17 -101 22 -110 5 -9 12 -67 16 -129 6 -85 11 -112 21 -112 11 0 14 34
14 176 0 145 3 178 16 191 8 9 13 22 10 29 -4 11 7 14 50 14 59 0 104 18 127
50 14 20 15 20 81 3 58 -14 69 -14 77 -2 7 12 9 12 9 0 0 -10 8 -12 29 -8 45
9 105 36 97 44 -3 4 -11 2 -17 -4 -6 -6 -18 -9 -26 -6 -11 4 -10 8 4 20 16 13
15 14 -12 8 -16 -3 -38 -8 -49 -12 -11 -3 -16 -1 -12 5 12 20 74 21 112 1 76
-38 165 -18 214 50 14 17 35 32 54 35 37 7 75 39 101 84 11 17 24 32 30 32 14
0 68 50 90 84 10 15 24 58 31 95 9 50 12 57 13 30 1 -33 5 -38 54 -61 68 -34
179 -56 298 -60 68 -2 95 -6 92 -15 -7 -18 26 -75 39 -67 7 4 8 3 4 -5 -17
-28 151 -142 189 -127 7 2 16 0 18 -7 3 -9 9 -9 26 1 22 13 44 17 25 4 -7 -4
35 -8 93 -10 57 -2 110 1 116 6 7 5 25 12 41 16 15 4 41 17 58 29 38 28 105
134 139 221 19 50 34 72 51 79 12 4 33 18 45 29 17 16 23 18 23 7 0 -12 2 -12
9 1 6 8 7 18 5 22 -3 4 -1 8 4 8 15 0 22 -26 9 -39 -8 -8 -8 -11 1 -11 12 0
15 8 15 43 0 9 4 17 8 17 19 0 8 27 -17 40 -23 13 -27 12 -35 -2 -5 -10 -16
-15 -24 -12 -8 4 -15 1 -15 -5 0 -6 5 -11 12 -11 6 0 9 -3 6 -6 -4 -3 -17 0
-29 7 -22 11 -21 13 32 40 50 26 91 40 61 20 -11 -7 -9 -13 8 -29 15 -14 20
-27 16 -41 -3 -12 -9 -30 -12 -41 -4 -16 -1 -20 18 -20 13 0 36 7 52 15 16 9
38 13 49 9 14 -4 18 -2 15 7 -3 8 -14 15 -25 17 -26 4 -70 50 -78 82 -5 21 2
31 41 64 37 31 43 34 30 13 -10 -14 -24 -28 -32 -31 -9 -3 -12 -11 -9 -16 8
-14 30 14 90 115 26 44 49 96 52 115 7 42 52 97 66 78 5 -8 6 -4 2 12 l-6 25
20 -23 c17 -19 26 -22 63 -16 24 4 57 13 73 21 24 11 25 13 5 8 -57 -15 -79
-16 -97 -6 -14 9 -10 10 21 5 28 -5 37 -4 32 5 -11 17 -64 13 -74 -6 -9 -15
-11 -14 -20 4 -6 11 -8 29 -5 41 8 34 -17 120 -43 144 -19 19 -22 30 -18 59 6
38 -11 109 -26 109 -4 0 -6 -27 -3 -60 6 -64 -3 -75 -41 -47 -14 10 -15 18 -7
40 6 14 20 77 31 139 11 62 23 122 25 134 4 16 10 19 39 16 48 -6 98 13 155
58 46 37 50 38 65 21 9 -10 16 -31 16 -47 0 -29 1 -30 53 -30 85 0 177 -64
222 -153 24 -47 16 -123 -16 -158 -25 -27 -77 -53 -105 -53 -14 0 -14 3 -3 16
17 21 13 118 -7 152 -21 35 -56 61 -94 68 -43 9 -37 -8 11 -30 108 -49 96
-217 -17 -235 -49 -8 -54 -35 -6 -39 21 -2 43 4 61 18 16 11 32 17 35 12 6
-11 -33 -72 -47 -72 -6 0 -1 10 11 23 29 31 28 42 -2 20 -13 -10 -22 -21 -19
-25 2 -5 -4 -8 -14 -9 -14 0 -13 -2 6 -10 20 -8 22 -11 10 -27 -11 -14 -9 -13
9 2 12 10 33 38 47 61 19 34 32 44 59 49 44 8 95 50 112 93 l14 33 80 0 c47 0
80 4 80 10 0 6 -33 10 -80 10 l-80 0 0 40 c0 39 -29 112 -50 125 -29 18 0 25
100 25 67 0 110 4 110 10 0 6 -48 10 -125 10 -116 0 -128 2 -163 24 -41 27
-117 50 -138 42 -9 -3 -20 10 -33 39 -18 40 -18 48 -5 97 7 29 16 79 20 110 5
42 10 55 20 51 18 -7 18 11 0 45 -7 15 -21 63 -30 107 -21 107 -64 189 -147
279 -129 139 -276 236 -419 275 -90 25 -116 26 -191 5 -55 -16 -59 -15 -115 6
-74 27 -139 39 -155 29z m467 -84 c226 -75 451 -279 514 -466 25 -73 31 -244
11 -315 -15 -55 -72 -128 -124 -158 -49 -28 -71 -33 -109 -23 l-28 7 0 115 c0
142 -36 329 -73 379 -13 17 -34 58 -47 90 -47 118 -214 307 -318 360 -31 16
-42 26 -32 29 8 3 22 8 30 11 26 9 95 -2 176 -29z m-2706 -1305 c12 -8 9 -10
-12 -10 -16 0 -28 5 -28 10 0 13 20 13 40 0z m13 -33 c15 -10 11 -12 -28 -9
-25 2 -45 8 -45 13 0 13 54 11 73 -4z m26 -347 c0 -10 -3 -8 -9 5 -12 27 -12
43 0 25 5 -8 9 -22 9 -30z m225 25 c-5 13 -4 17 3 10 17 -16 4 -87 -15 -83
-16 3 -24 40 -15 71 5 18 5 18 19 0 13 -17 14 -17 8 2z m2647 -74 c-45 -69
-108 -124 -191 -166 -40 -20 -73 -35 -75 -33 -2 4 -35 170 -35 181 0 4 12 7
28 7 21 0 32 -8 46 -35 34 -62 77 -58 130 11 30 39 113 98 125 88 2 -2 -11
-26 -28 -53z m-2711 -6 c0 -11 -11 -15 -40 -15 -29 0 -40 4 -40 15 0 11 11 15
40 15 29 0 40 -4 40 -15z m2582 -26 c-18 -16 -39 -29 -47 -29 -18 0 -40 39
-28 50 8 9 94 18 103 12 3 -2 -10 -17 -28 -33z m-2390 -51 c12 -36 14 -56 7
-67 -8 -13 -9 -11 -4 6 5 19 3 22 -12 16 -15 -6 -16 -4 -5 9 10 12 9 21 -3 44
-8 16 -15 23 -15 17 0 -8 -15 -13 -40 -13 -54 0 -56 27 -2 33 20 2 42 4 47 5
6 1 18 -21 27 -50z m-316 -23 c11 -43 0 -42 -22 1 -19 39 -19 42 -2 33 10 -5
21 -21 24 -34z m31 -32 c-3 -10 -5 -4 -5 12 0 17 2 24 5 18 2 -7 2 -21 0 -30z
m1668 24 c19 -2 18 -3 -5 -24 -13 -13 -31 -23 -41 -23 -17 0 -69 36 -69 48 0
6 52 6 115 -1z m-1347 -97 c0 -20 -1 -21 -5 -5 -3 11 -9 23 -14 26 -6 3 -6 14
-3 24 7 18 8 18 15 -1 4 -10 7 -30 7 -44z m-51 18 c-3 -7 -5 -2 -5 12 0 14 2
19 5 13 2 -7 2 -19 0 -25z m1013 -72 l-1 -31 -15 34 c-8 19 -20 41 -27 50 -8
10 -4 9 16 -3 20 -14 27 -26 27 -50z m-941 -51 c0 -14 -4 -10 -15 12 -10 20
-13 40 -9 50 7 15 9 13 15 -12 4 -16 8 -39 9 -50z m1091 15 c51 -15 120 -24
217 -29 79 -3 147 -11 153 -17 7 -7 -2 -10 -27 -11 -20 -1 -31 2 -24 6 6 4
-31 8 -81 10 -128 3 -160 7 -236 30 -18 5 -39 8 -46 5 -7 -3 -19 2 -26 11 -7
8 -20 15 -28 15 -13 0 -13 -2 3 -13 14 -11 15 -16 5 -22 -8 -5 -11 -4 -7 2 10
17 -24 25 -42 11 -14 -11 -14 -11 -4 3 7 9 10 19 6 23 -4 4 1 4 12 1 19 -6 19
-6 3 8 -30 24 -20 30 15 9 17 -12 66 -30 107 -42z m-1160 30 c0 -5 -4 -10 -10
-10 -5 0 -10 5 -10 10 0 6 5 10 10 10 6 0 10 -4 10 -10z m2266 -35 c-9 -9 -16
-13 -16 -8 0 12 22 34 28 28 2 -2 -3 -11 -12 -20z m145 2 c-10 -9 -11 -8 -5 6
3 10 9 15 12 12 3 -3 0 -11 -7 -18z m-2504 -13 c-3 -3 -12 -4 -19 -1 -8 3 -5
6 6 6 11 1 17 -2 13 -5z m116 -1 c-7 -2 -19 -2 -25 0 -7 3 -2 5 12 5 14 0 19
-2 13 -5z m1557 -3 c0 -5 -17 -9 -37 -9 l-38 2 35 7 c19 4 36 8 38 9 1 0 2 -3
2 -9z m-1753 -6 c-3 -3 -12 -4 -19 -1 -8 3 -5 6 6 6 11 1 17 -2 13 -5z m1439
-32 c-21 -2 -42 0 -47 5 -4 4 13 6 39 3 l47 -5 -39 -3z m-1419 -8 c-3 -3 -12
-4 -19 -1 -8 3 -5 6 6 6 11 1 17 -2 13 -5z m1600 0 c-3 -3 -12 -4 -19 -1 -8 3
-5 6 6 6 11 1 17 -2 13 -5z m133 -4 c0 -5 -2 -10 -4 -10 -3 0 -8 5 -11 10 -3
6 -1 10 4 10 6 0 11 -4 11 -10z m-1600 -4 c0 -2 -9 -6 -20 -9 -11 -3 -20 -1
-20 4 0 5 9 9 20 9 11 0 20 -2 20 -4z m100 -23 c0 -21 -3 -24 -9 -13 -6 8 -8
17 -5 21 2 5 -15 10 -38 12 l-43 4 48 1 c45 2 47 1 47 -25z m1157 21 c-3 -3
-12 -4 -19 -1 -8 3 -5 6 6 6 11 1 17 -2 13 -5z m46 -1 c-13 -2 -23 -9 -23 -14
0 -5 -4 -9 -10 -9 -5 0 -7 7 -4 15 4 9 17 14 33 14 23 -2 24 -2 4 -6z m-107
-18 c-11 -8 -25 -15 -30 -15 -6 1 0 7 14 15 32 19 40 18 16 0z m-59 -1 c-3 -3
-12 -4 -19 -1 -8 3 -5 6 6 6 11 1 17 -2 13 -5z m470 -16 c-3 -8 -6 -5 -6 6 -1
11 2 17 5 13 3 -3 4 -12 1 -19z m-1712 2 c3 -5 1 -10 -4 -10 -6 0 -11 5 -11
10 0 6 2 10 4 10 3 0 8 -4 11 -10z m95 1 c0 -3 -4 -12 -9 -19 -6 -11 -9 -9
-13 5 -3 12 0 20 8 20 8 0 14 -3 14 -6z m1283 -8 c-7 -2 -21 -2 -30 0 -10 3
-4 5 12 5 17 0 24 -2 18 -5z m-63 -13 c11 -8 7 -9 -15 -4 -37 8 -45 14 -19 14
10 0 26 -5 34 -10z m-1110 -10 c0 -5 -2 -10 -4 -10 -3 0 -8 5 -11 10 -3 6 -1
10 4 10 6 0 11 -4 11 -10z m-109 -27 c-8 -15 -10 -15 -11 -2 0 17 10 32 18 25
2 -3 -1 -13 -7 -23z m1529 17 c0 -5 -7 -10 -16 -10 -8 0 -12 5 -9 10 3 6 10
10 16 10 5 0 9 -4 9 -10z m109 -35 c0 -5 -4 -3 -9 5 -5 8 -9 22 -9 30 0 16 17
-16 18 -35z m-1515 -100 c4 -11 0 -6 -10 10 -9 17 -18 50 -20 75 l-2 45 12
-55 c8 -30 17 -64 20 -75z m-304 85 c0 -5 -4 -10 -10 -10 -5 0 -10 5 -10 10 0
6 5 10 10 10 6 0 10 -4 10 -10z m187 -12 c-3 -8 -6 -5 -6 6 -1 11 2 17 5 13 3
-3 4 -12 1 -19z m1513 12 c0 -5 -2 -10 -4 -10 -3 0 -8 5 -11 10 -3 6 -1 10 4
10 6 0 11 -4 11 -10z m107 -72 c-3 -7 -5 -2 -5 12 0 14 2 19 5 13 2 -7 2 -19
0 -25z m-56 -5 c13 -16 12 -17 -3 -4 -17 13 -22 21 -14 21 2 0 10 -8 17 -17z
m-1398 -79 c21 -23 25 -34 16 -39 -7 -5 -10 -4 -6 2 3 5 -7 22 -24 37 -16 15
-29 33 -29 39 0 7 3 7 8 2 4 -6 20 -24 35 -41z m1447 36 c0 -5 -5 -10 -11 -10
-5 0 -7 5 -4 10 3 6 8 10 11 10 2 0 4 -4 4 -10z m-1724 -30 c0 -12 -4 -16 -9
-11 -5 5 -6 14 -3 20 10 15 12 14 12 -9z m1797 -1 c9 0 17 -4 17 -9 0 -10 -24
-6 -60 9 l-25 12 25 -7 c14 -3 33 -6 43 -5z m-1453 -74 c13 -14 21 -25 17 -25
-3 0 -18 11 -33 25 -15 14 -23 25 -17 25 5 0 20 -11 33 -25z m-260 -5 c0 -5
-5 -10 -11 -10 -5 0 -7 5 -4 10 3 6 8 10 11 10 2 0 4 -4 4 -10z m47 -57 c-3
-10 -5 -2 -5 17 0 19 2 27 5 18 2 -10 2 -26 0 -35z m280 41 c-3 -3 -12 -4 -19
-1 -8 3 -5 6 6 6 11 1 17 -2 13 -5z m82 -8 c-2 -2 -22 -6 -44 -9 -28 -5 -34
-4 -20 3 19 8 73 14 64 6z m-412 -38 c-3 -8 -6 -5 -6 6 -1 11 2 17 5 13 3 -3
4 -12 1 -19z"/>
<path d="M3248 2449 c-24 -14 -24 -33 0 -20 23 12 76 -10 95 -41 9 -13 18 -44
22 -69 6 -41 4 -48 -16 -63 -13 -9 -32 -16 -42 -16 -10 0 -17 -5 -15 -12 8
-24 38 -19 68 10 34 35 40 88 16 147 -22 52 -91 87 -128 64z"/>
<path d="M2271 2898 c-69 -34 -147 -118 -183 -195 -27 -58 -31 -80 -32 -153
-1 -75 2 -91 28 -140 41 -77 122 -153 193 -180 136 -52 300 6 380 134 37 58
43 156 15 213 -41 80 -153 153 -234 153 -111 0 -186 -105 -159 -224 7 -30 20
-61 31 -71 24 -22 92 -31 128 -16 33 14 62 58 62 95 0 31 -32 66 -59 66 -30 0
-35 -19 -8 -29 33 -13 41 -39 22 -68 -31 -47 -100 -52 -130 -10 -19 28 -19
110 0 150 52 106 203 93 298 -25 110 -136 -28 -348 -227 -348 -84 0 -127 14
-184 59 -124 99 -157 235 -91 387 26 61 117 155 178 184 28 13 48 27 45 32 -8
13 -26 10 -73 -14z"/>
<path d="M173 2523 c-47 -115 58 -320 185 -362 78 -26 142 16 142 91 0 51 -27
108 -56 119 -36 13 -69 -11 -69 -50 0 -42 22 -53 27 -14 5 43 42 44 57 2 16
-46 14 -73 -7 -99 -52 -64 -179 14 -237 147 -27 59 -34 148 -15 184 8 13 7 19
0 19 -6 0 -18 -17 -27 -37z"/>
<path d="M3580 2479 c0 -31 29 -119 39 -119 18 0 18 15 -1 68 -23 67 -38 87
-38 51z"/>
<path d="M3685 2428 c8 -36 29 -65 38 -51 7 11 -23 83 -35 83 -6 0 -7 -13 -3
-32z"/>
<path d="M3866 2431 c-4 -7 -5 -15 -2 -18 9 -9 19 4 14 18 -4 11 -6 11 -12 0z"/>
<path d="M3660 2218 c0 -9 5 -20 11 -23 17 -11 18 -2 3 19 -12 17 -14 17 -14
4z"/>
<path d="M3690 2226 c0 -4 7 -14 15 -22 8 -9 15 -11 15 -6 0 5 -7 15 -15 22
-8 7 -15 9 -15 6z"/>
<path d="M3762 2170 c-7 -11 -8 -20 -3 -20 9 0 24 30 18 36 -1 2 -8 -6 -15
-16z"/>
<path d="M3726 2171 c-4 -7 -5 -15 -2 -18 9 -9 19 4 14 18 -4 11 -6 11 -12 0z"/>
<path d="M3780 2141 c0 -6 6 -8 14 -5 8 3 16 -2 20 -13 4 -15 5 -15 3 2 -2 20
-37 35 -37 16z"/>
<path d="M387 2103 c-13 -12 -7 -84 8 -113 46 -89 246 -120 276 -43 19 50 -46
114 -88 87 -25 -15 -16 -29 15 -26 23 3 33 -2 43 -19 10 -20 9 -25 -11 -41
-43 -35 -139 -16 -192 39 -27 28 -33 41 -33 78 0 43 -4 52 -18 38z"/>
<path d="M3720 2106 c0 -9 30 -14 35 -6 4 6 -3 10 -14 10 -12 0 -21 -2 -21 -4z"/>
<path d="M3400 1832 c0 -5 8 -16 17 -23 9 -8 29 -34 45 -58 57 -91 23 -175
-77 -189 -34 -5 -50 -12 -50 -22 0 -22 56 -24 101 -4 56 26 61 27 40 10 -18
-14 -18 -15 2 -13 11 0 18 5 16 9 -3 4 0 8 5 8 6 0 11 -4 11 -10 0 -5 3 -9 8
-7 4 1 8 -3 10 -8 5 -14 32 -28 39 -21 4 3 0 6 -8 7 -8 0 -6 4 6 9 17 7 17 9
3 9 -10 1 -18 6 -18 11 0 6 -8 10 -17 10 -10 0 -24 4 -32 9 -11 7 -11 13 3 32
31 45 17 140 -27 187 -30 33 -77 65 -77 54z"/>
<path d="M2924 1755 c-24 -37 -9 -79 28 -83 22 -3 29 2 34 24 9 34 -6 78 -28
82 -9 2 -24 -8 -34 -23z"/>
<path d="M2130 1701 c-16 -31 -12 -58 14 -88 20 -24 26 -25 40 -14 31 26 13
121 -23 121 -11 0 -25 -9 -31 -19z"/>
<path d="M20 1680 c-21 -7 -19 -8 18 -9 23 -1 42 4 42 9 0 12 -24 12 -60 0z"/>
<path d="M441 1673 c-1 -13 8 -28 18 -35 11 -6 17 -19 14 -27 -4 -14 -3 -14 6
-1 7 11 5 20 -8 35 -10 11 -21 27 -24 35 -4 10 -6 7 -6 -7z"/>
<path d="M2600 1660 c-19 -19 -25 -20 -51 -10 -36 15 -91 6 -114 -20 -14 -15
-17 -31 -13 -70 6 -57 10 -65 33 -56 12 4 14 10 5 25 -42 79 39 136 100 71 15
-16 31 -30 34 -30 3 0 9 14 14 32 4 17 15 36 24 41 22 14 72 -8 89 -39 11 -21
10 -29 -5 -54 -14 -25 -15 -30 -2 -30 24 0 46 29 46 61 0 72 -111 128 -160 79z"/>
<path d="M495 1595 c4 -11 9 -29 12 -40 4 -16 3 -17 -6 -5 -9 13 -11 13 -11
-2 0 -21 13 -23 28 -5 8 10 6 21 -10 42 -11 17 -17 21 -13 10z"/>
<path d="M3515 1570 c3 -5 8 -10 11 -10 2 0 4 5 4 10 0 6 -5 10 -11 10 -5 0
-7 -4 -4 -10z"/>
<path d="M3558 1563 c7 -3 16 -2 19 1 4 3 -2 6 -13 5 -11 0 -14 -3 -6 -6z"/>
<path d="M2646 1541 c-4 -7 -5 -15 -2 -18 9 -9 19 4 14 18 -4 11 -6 11 -12 0z"/>
<path d="M2512 1518 c6 -18 28 -21 28 -4 0 9 -7 16 -16 16 -9 0 -14 -5 -12
-12z"/>
<path d="M3441 1517 c-4 -4 -26 -8 -49 -10 -46 -2 -57 -22 -19 -36 36 -14 184
-8 199 8 11 11 9 12 -9 2 -27 -14 -56 -14 -48 -1 4 6 11 8 16 5 5 -4 9 -2 9 4
0 5 -5 13 -10 16 -6 4 -8 10 -6 13 6 10 -73 9 -83 -1z m-18 -34 c-13 -2 -33
-2 -45 0 -13 2 -3 4 22 4 25 0 35 -2 23 -4z"/>
<path d="M571 1383 c0 -25 1 -26 9 -8 12 27 12 35 0 35 -5 0 -10 -12 -9 -27z"/>
<path d="M1290 1333 c1 -4 15 -17 33 -28 18 -11 42 -39 53 -62 54 -107 -35
-233 -173 -241 -51 -4 -68 0 -97 18 -48 29 -66 57 -66 103 0 54 43 97 97 97
50 0 76 -19 71 -51 -2 -16 -10 -25 -26 -27 -26 -4 -25 -25 2 -30 49 -10 76 77
36 113 -31 28 -117 31 -158 6 -38 -24 -52 -55 -52 -116 0 -35 6 -52 31 -80 44
-49 84 -68 149 -69 116 -2 230 101 230 206 0 59 -22 111 -59 137 -31 22 -71
36 -71 24z"/>
<path d="M3085 1080 c3 -5 8 -10 11 -10 2 0 4 5 4 10 0 6 -5 10 -11 10 -5 0
-7 -4 -4 -10z"/>
<path d="M3515 960 c-148 -3 -271 -7 -272 -8 -17 -14 53 -17 377 -14 327 2
380 5 380 17 0 12 -18 15 -107 13 -60 -1 -229 -5 -378 -8z"/>
<path d="M79 679 c-6 -12 -9 -32 -6 -45 2 -13 1 -21 -3 -19 -15 9 -20 -27 -10
-65 12 -43 30 -55 56 -35 13 9 23 10 31 3 14 -11 33 -2 33 16 0 20 -40 67 -51
61 -12 -8 -11 2 1 25 8 15 6 24 -8 38 -10 10 -16 24 -14 30 7 21 -17 13 -29
-9z m31 -40 c0 -6 -4 -7 -10 -4 -5 3 -10 11 -10 16 0 6 5 7 10 4 6 -3 10 -11
10 -16z"/>
<path d="M294 469 c5 -33 31 -68 42 -57 11 12 -7 64 -27 76 -19 12 -20 11 -15
-19z m31 -29 c3 -5 1 -10 -4 -10 -6 0 -11 5 -11 10 0 6 2 10 4 10 3 0 8 -4 11
-10z"/>
<path d="M213 473 c-8 -20 31 -55 52 -46 20 7 19 16 -4 41 -22 26 -39 28 -48
5z"/>
<path d="M1020 418 c0 -19 2 -20 10 -8 13 19 13 30 0 30 -5 0 -10 -10 -10 -22z"/>
<path d="M986 262 c-3 -6 -1 -14 5 -17 15 -10 25 3 12 16 -7 7 -13 7 -17 1z"/>
<path d="M1070 230 c0 -5 5 -10 10 -10 6 0 10 5 10 10 0 6 -4 10 -10 10 -5 0
-10 -4 -10 -10z"/>
</g>
</svg>
